<?xml version="1.0" standalone="no"?>
<!DOCTYPE svg PUBLIC "-//W3C//DTD SVG 20010904//EN"
 "http://www.w3.org/TR/2001/REC-SVG-20010904/DTD/svg10.dtd">
<svg version="1.0" xmlns="http://www.w3.org/2000/svg"
 width="469.000000pt" height="532.000000pt" viewBox="0 0 469.000000 532.000000"
 preserveAspectRatio="xMidYMid meet">

<g transform="translate(0.000000,532.000000) scale(0.100000,-0.100000)"
fill="#000000" stroke="none">
<path d="M1775 3744 c-140 -18 -232 -60 -321 -146 -72 -69 -126 -169 -143
-262 -7 -38 -11 -269 -11 -635 0 -627 2 -655 57 -768 39 -81 143 -185 225
-223 123 -58 148 -60 768 -60 596 0 642 3 742 48 116 52 222 168 270 297 23
60 23 64 26 685 l3 625 -26 81 c-28 90 -88 188 -142 233 -20 17 -62 44 -94 61
-123 65 -97 63 -739 65 -322 2 -598 1 -615 -1z m700 -565 c31 -8 62 -33 138
-111 54 -56 106 -115 115 -132 15 -27 17 -71 20 -316 4 -313 0 -343 -49 -384
l-31 -26 -323 0 -323 0 -31 26 c-17 14 -35 42 -41 62 -6 22 -10 186 -10 409 0
423 0 426 74 463 37 18 61 20 231 20 105 0 208 -5 230 -11z"/>
<path d="M2042 3078 c-16 -16 -17 -729 -2 -759 10 -18 24 -19 305 -19 281 0
295 1 305 19 11 22 14 340 4 440 l-7 61 -86 0 c-68 0 -93 4 -119 20 -43 26
-52 54 -52 161 l0 89 -168 0 c-117 0 -172 -4 -180 -12z m239 -218 c19 -11 24
-35 13 -64 -5 -13 -22 -16 -83 -16 -77 0 -101 9 -101 39 0 34 31 51 92 51 33
0 68 -5 79 -10z m289 -186 c10 -11 11 -23 4 -42 l-9 -27 -214 -3 c-225 -3
-241 0 -241 42 0 44 13 46 236 46 179 0 214 -2 224 -16z m-8 -171 c24 -22 23
-49 -4 -67 -18 -13 -56 -16 -208 -16 -193 0 -231 7 -238 43 -2 10 4 27 14 38
16 18 32 19 217 19 172 0 203 -2 219 -17z"/>
<path d="M2480 2990 c0 -70 3 -72 86 -68 l59 3 -65 62 c-36 35 -68 63 -72 63
-5 0 -8 -27 -8 -60z"/>
</g>
</svg>
